<svg width="16" height="16" viewBox="0 0 16 16" fill="none" xmlns="http://www.w3.org/2000/svg">
<path d="M5.3335 3.83337C5.06016 3.83337 4.8335 3.60671 4.8335 3.33337V1.33337C4.8335 1.06004 5.06016 0.833374 5.3335 0.833374C5.60683 0.833374 5.8335 1.06004 5.8335 1.33337V3.33337C5.8335 3.60671 5.60683 3.83337 5.3335 3.83337Z" fill="#909090"/>
<path d="M10.6665 3.83337C10.3932 3.83337 10.1665 3.60671 10.1665 3.33337V1.33337C10.1665 1.06004 10.3932 0.833374 10.6665 0.833374C10.9398 0.833374 11.1665 1.06004 11.1665 1.33337V3.33337C11.1665 3.60671 10.9398 3.83337 10.6665 3.83337Z" fill="#909090"/>
<path d="M5.66667 9.66668C5.58 9.66668 5.49333 9.64669 5.41333 9.61335C5.32666 9.58002 5.26001 9.53334 5.19334 9.47334C5.07334 9.34667 5 9.17335 5 9.00001C5 8.82668 5.07334 8.65335 5.19334 8.52668C5.26001 8.46668 5.33333 8.42 5.41333 8.38667C5.57333 8.32 5.76 8.32 5.92 8.38667C6 8.42 6.07333 8.46668 6.13999 8.52668C6.16666 8.56002 6.19999 8.59335 6.21999 8.62668C6.24666 8.66668 6.26668 8.70668 6.28001 8.74668C6.30001 8.78668 6.31334 8.82667 6.32001 8.86667C6.32667 8.91334 6.33333 8.96001 6.33333 9.00001C6.33333 9.17335 6.25999 9.34667 6.13999 9.47334C6.07333 9.53334 6 9.58002 5.92 9.61335C5.84 9.64669 5.75333 9.66668 5.66667 9.66668Z" fill="#909090"/>
<path d="M8.00016 9.66667C7.9135 9.66667 7.82683 9.64668 7.74683 9.61334C7.66016 9.58001 7.5935 9.53333 7.52684 9.47333C7.40684 9.34666 7.3335 9.17334 7.3335 9C7.3335 8.96 7.34016 8.91333 7.34682 8.86666C7.35349 8.82666 7.36682 8.78667 7.38682 8.74667C7.40015 8.70667 7.42017 8.66667 7.44684 8.62667C7.47351 8.59334 7.50017 8.56001 7.52684 8.52667C7.7735 8.28001 8.22016 8.28001 8.47349 8.52667C8.50016 8.56001 8.52682 8.59334 8.55349 8.62667C8.58015 8.66667 8.60017 8.70667 8.61351 8.74667C8.63351 8.78667 8.64684 8.82666 8.6535 8.86666C8.66017 8.91333 8.66683 8.96 8.66683 9C8.66683 9.17334 8.59349 9.34666 8.47349 9.47333C8.34682 9.59333 8.18016 9.66667 8.00016 9.66667Z" fill="#909090"/>
<path d="M5.66667 12.0001C5.58 12.0001 5.49333 11.9801 5.41333 11.9467C5.33333 11.9134 5.26001 11.8667 5.19334 11.8067C5.07334 11.68 5 11.5067 5 11.3334C5 11.2934 5.00666 11.2467 5.01333 11.2067C5.01999 11.1601 5.03332 11.12 5.05332 11.08C5.06666 11.04 5.08668 11.0001 5.11334 10.9601C5.13334 10.9267 5.16667 10.8934 5.19334 10.8601C5.26001 10.8001 5.33333 10.7534 5.41333 10.72C5.57333 10.6534 5.76 10.6534 5.92 10.72C6 10.7534 6.07333 10.8001 6.13999 10.8601C6.16666 10.8934 6.19999 10.9267 6.21999 10.9601C6.24666 11.0001 6.26668 11.04 6.28001 11.08C6.30001 11.12 6.31334 11.1601 6.32001 11.2067C6.32667 11.2467 6.33333 11.2934 6.33333 11.3334C6.33333 11.5067 6.25999 11.68 6.13999 11.8067C6.07333 11.8667 6 11.9134 5.92 11.9467C5.84 11.9801 5.75333 12.0001 5.66667 12.0001Z" fill="#909090"/>
<path d="M13.6668 6.55994H2.3335C2.06016 6.55994 1.8335 6.33327 1.8335 6.05994C1.8335 5.7866 2.06016 5.55994 2.3335 5.55994H13.6668C13.9402 5.55994 14.1668 5.7866 14.1668 6.05994C14.1668 6.33327 13.9402 6.55994 13.6668 6.55994Z" fill="#909090"/>
<path d="M10.5465 15.1867C10.2932 15.1867 10.0532 15.0934 9.87988 14.92C9.67321 14.7134 9.57987 14.4134 9.62654 14.1L9.75321 13.2C9.78654 12.9667 9.92655 12.6867 10.0932 12.52L12.4532 10.16C12.7732 9.84002 13.0865 9.67336 13.4265 9.64002C13.8465 9.60002 14.2532 9.77336 14.6399 10.16C15.0465 10.5667 15.5932 11.3934 14.6399 12.3467L12.2799 14.7067C12.1132 14.8734 11.8332 15.0134 11.5999 15.0467L10.6999 15.1734C10.6465 15.18 10.5999 15.1867 10.5465 15.1867ZM13.5399 10.6334C13.5332 10.6334 13.5265 10.6334 13.5199 10.6334C13.4265 10.64 13.2999 10.7267 13.1599 10.8667L10.7999 13.2267C10.7799 13.2467 10.7465 13.3134 10.7465 13.34L10.6265 14.1734L11.4599 14.0534C11.4865 14.0467 11.5532 14.0134 11.5732 13.9934L13.9332 11.6334C14.2265 11.34 14.2665 11.1934 13.9332 10.86C13.8265 10.76 13.6732 10.6334 13.5399 10.6334Z" fill="#909090"/>
<path d="M13.9466 12.8332C13.8999 12.8332 13.8532 12.8266 13.8132 12.8132C12.9332 12.5666 12.2332 11.8666 11.9866 10.9866C11.9132 10.7199 12.0666 10.4466 12.3332 10.3666C12.5999 10.2932 12.8732 10.4466 12.9532 10.7133C13.1066 11.2599 13.5399 11.6932 14.0866 11.8466C14.3532 11.9199 14.5066 12.1999 14.4332 12.4666C14.3666 12.6866 14.1666 12.8332 13.9466 12.8332Z" fill="#909090"/>
<path d="M8 15.1667H5.33333C2.9 15.1667 1.5 13.7667 1.5 11.3334V5.66671C1.5 3.23337 2.9 1.83337 5.33333 1.83337H10.6667C13.1 1.83337 14.5 3.23337 14.5 5.66671V8.00004C14.5 8.27337 14.2733 8.50004 14 8.50004C13.7267 8.50004 13.5 8.27337 13.5 8.00004V5.66671C13.5 3.76004 12.5733 2.83337 10.6667 2.83337H5.33333C3.42667 2.83337 2.5 3.76004 2.5 5.66671V11.3334C2.5 13.24 3.42667 14.1667 5.33333 14.1667H8C8.27333 14.1667 8.5 14.3934 8.5 14.6667C8.5 14.94 8.27333 15.1667 8 15.1667Z" fill="#909090"/>
</svg>
