<svg width="10" height="10" viewBox="0 0 10 10" fill="none" xmlns="http://www.w3.org/2000/svg">
<path d="M4.99992 0.833496C2.70409 0.833496 0.833252 2.70433 0.833252 5.00016C0.833252 7.296 2.70409 9.16683 4.99992 9.16683C7.29575 9.16683 9.16658 7.296 9.16658 5.00016C9.16658 2.70433 7.29575 0.833496 4.99992 0.833496ZM6.81242 6.48766C6.75409 6.58766 6.64992 6.64183 6.54158 6.64183C6.48742 6.64183 6.43325 6.62933 6.38325 6.596L5.09159 5.82516C4.77075 5.6335 4.53325 5.21266 4.53325 4.84183V3.1335C4.53325 2.96266 4.67492 2.821 4.84575 2.821C5.01659 2.821 5.15825 2.96266 5.15825 3.1335V4.84183C5.15825 4.99183 5.28325 5.21266 5.41242 5.28766L6.70409 6.0585C6.85409 6.146 6.90409 6.33766 6.81242 6.48766Z" fill="#6A6A6A"/>
</svg>
