<svg width="10" height="10" viewBox="0 0 10 10" fill="none" xmlns="http://www.w3.org/2000/svg">
<path d="M5.00004 0.833496C2.70421 0.833496 0.833374 2.70433 0.833374 5.00016C0.833374 7.296 2.70421 9.16683 5.00004 9.16683C7.29587 9.16683 9.16671 7.296 9.16671 5.00016C9.16671 2.70433 7.29587 0.833496 5.00004 0.833496ZM4.68754 3.3335C4.68754 3.16266 4.82921 3.021 5.00004 3.021C5.17087 3.021 5.31254 3.16266 5.31254 3.3335V5.41683C5.31254 5.58766 5.17087 5.72933 5.00004 5.72933C4.82921 5.72933 4.68754 5.58766 4.68754 5.41683V3.3335ZM5.38337 6.82516C5.36254 6.87933 5.33337 6.921 5.29587 6.96266C5.25421 7.00016 5.20837 7.02933 5.15837 7.05016C5.10837 7.071 5.05421 7.0835 5.00004 7.0835C4.94587 7.0835 4.89171 7.071 4.84171 7.05016C4.79171 7.02933 4.74587 7.00016 4.70421 6.96266C4.66671 6.921 4.63754 6.87933 4.61671 6.82516C4.59587 6.77516 4.58337 6.721 4.58337 6.66683C4.58337 6.61266 4.59587 6.5585 4.61671 6.5085C4.63754 6.4585 4.66671 6.41266 4.70421 6.371C4.74587 6.3335 4.79171 6.30433 4.84171 6.2835C4.94171 6.24183 5.05837 6.24183 5.15837 6.2835C5.20837 6.30433 5.25421 6.3335 5.29587 6.371C5.33337 6.41266 5.36254 6.4585 5.38337 6.5085C5.40421 6.5585 5.41671 6.61266 5.41671 6.66683C5.41671 6.721 5.40421 6.77516 5.38337 6.82516Z" fill="#B5B5B5"/>
</svg>
