<svg width="36" height="36" viewBox="0 0 36 36" fill="none" xmlns="http://www.w3.org/2000/svg">
<path d="M13.1672 17.7354V14.4036C13.177 13.7486 13.3161 13.1021 13.5763 12.501C13.8365 11.8999 14.2127 11.356 14.6835 10.9006C15.1542 10.4451 15.7102 10.0871 16.3196 9.84686C16.9289 9.60666 17.5797 9.48906 18.2346 9.5008C18.8895 9.48906 19.5403 9.60666 20.1496 9.84686C20.759 10.0871 21.315 10.4451 21.7857 10.9006C22.2565 11.356 22.6327 11.8999 22.8929 12.501C23.1531 13.1021 23.2922 13.7486 23.302 14.4036V17.7354M20.7683 24.3864C21.4403 24.3864 22.0848 24.1195 22.5599 23.6443C23.0351 23.1691 23.302 22.5247 23.302 21.8527V19.0023M20.7683 24.3864C20.7683 24.8064 20.6015 25.2092 20.3045 25.5062C20.0075 25.8032 19.6047 25.97 19.1847 25.97H17.2845C16.8645 25.97 16.4617 25.8032 16.1647 25.5062C15.8677 25.2092 15.7009 24.8064 15.7009 24.3864C15.7009 23.9664 15.8677 23.5636 16.1647 23.2667C16.4617 22.9697 16.8645 22.8028 17.2845 22.8028H19.1847C19.6047 22.8028 20.0075 22.9697 20.3045 23.2667C20.6015 23.5636 20.7683 23.9664 20.7683 24.3864ZM11.2669 15.8351H12.5337C12.7017 15.8351 12.8628 15.9018 12.9816 16.0206C13.1004 16.1394 13.1672 16.3005 13.1672 16.4685V20.2691C13.1672 20.4371 13.1004 20.5982 12.9816 20.717C12.8628 20.8358 12.7017 20.9026 12.5337 20.9026H11.2669C10.9309 20.9026 10.6086 20.7691 10.3711 20.5315C10.1335 20.2939 10 19.9717 10 19.6357V17.102C10 16.766 10.1335 16.4437 10.3711 16.2062C10.6086 15.9686 10.9309 15.8351 11.2669 15.8351ZM25.2023 20.9026H23.9355C23.7675 20.9026 23.6064 20.8358 23.4876 20.717C23.3688 20.5982 23.302 20.4371 23.302 20.2691V16.4685C23.302 16.3005 23.3688 16.1394 23.4876 16.0206C23.6064 15.9018 23.7675 15.8351 23.9355 15.8351H25.2023C25.5383 15.8351 25.8606 15.9686 26.0981 16.2062C26.3357 16.4437 26.4692 16.766 26.4692 17.102V19.6357C26.4692 19.9717 26.3357 20.2939 26.0981 20.5315C25.8606 20.7691 25.5383 20.9026 25.2023 20.9026Z" stroke="#454545" stroke-width="1.5" stroke-linecap="round" stroke-linejoin="round"/>
<rect x="16" y="6" width="19" height="8" rx="4" fill="#FE5349"/>
<path d="M22.8807 8.4V12H22.2957V10.3975H20.4882V12H19.9007V8.4H20.4882V9.975H22.2957V8.4H22.8807ZM25.8861 11.5275L25.8836 12H23.6386V8.4H25.8836V8.8725H24.2261V9.9575H25.5511V10.415H24.2261V11.5275H25.8861ZM28.4995 11.51V12H26.4195V8.4H27.0045V11.51H28.4995ZM30.0225 10.235C30.1525 10.235 30.2667 10.2183 30.365 10.185C30.465 10.1517 30.5475 10.105 30.6125 10.045C30.6792 9.98333 30.7292 9.90917 30.7625 9.8225C30.7958 9.73583 30.8125 9.63917 30.8125 9.5325C30.8125 9.4275 30.7958 9.33333 30.7625 9.25C30.7308 9.16667 30.6825 9.09583 30.6175 9.0375C30.5525 8.97917 30.47 8.935 30.37 8.905C30.2717 8.87333 30.1558 8.8575 30.0225 8.8575H29.4875V10.235H30.0225ZM30.0225 8.4C30.2575 8.4 30.4608 8.4275 30.6325 8.4825C30.8058 8.5375 30.9483 8.615 31.06 8.715C31.1733 8.81333 31.2575 8.9325 31.3125 9.0725C31.3675 9.21083 31.395 9.36417 31.395 9.5325C31.395 9.70417 31.3658 9.86167 31.3075 10.005C31.2492 10.1467 31.1625 10.2692 31.0475 10.3725C30.9325 10.4742 30.7892 10.5542 30.6175 10.6125C30.4475 10.6692 30.2492 10.6975 30.0225 10.6975H29.4875V12H28.9025V8.4H30.0225Z" fill="#FCFCFC"/>
</svg>
