<svg width="40" height="40" viewBox="0 0 40 40" fill="none" xmlns="http://www.w3.org/2000/svg">
<path d="M25 26.43H21L16.55 29.39C15.89 29.83 15 29.36 15 28.56V26.43C12 26.43 10 24.43 10 21.43V15.4299C10 12.4299 12 10.4299 15 10.4299H25C28 10.4299 30 12.4299 30 15.4299V21.43C30 24.43 28 26.43 25 26.43Z" stroke="#909090" stroke-width="1.5" stroke-miterlimit="10" stroke-linecap="round" stroke-linejoin="round"/>
<path d="M19.9998 19.36V19.15C19.9998 18.47 20.4198 18.11 20.8398 17.82C21.2498 17.54 21.6598 17.18 21.6598 16.52C21.6598 15.6 20.9198 14.86 19.9998 14.86C19.0798 14.86 18.3398 15.6 18.3398 16.52" stroke="#909090" stroke-width="1.5" stroke-linecap="round" stroke-linejoin="round"/>
<path d="M19.9955 21.75H20.0045" stroke="#909090" stroke-width="1.5" stroke-linecap="round" stroke-linejoin="round"/>
</svg>
