<svg width="16" height="16" viewBox="0 0 16 16" fill="none" xmlns="http://www.w3.org/2000/svg">
<path fill-rule="evenodd" clip-rule="evenodd" d="M12.7334 12.7733C13.1267 12.1733 13.2734 11.8666 13.5734 11.1933C11.36 10.3533 11.0067 7.19995 13.1934 5.99329C12.5267 5.15329 11.5867 4.66663 10.7 4.66663C10.06 4.66663 9.62004 4.8333 9.22671 4.98663C8.89338 5.1133 8.59338 5.22662 8.22005 5.22662C7.82005 5.22662 7.46671 5.09997 7.09338 4.96663C6.68671 4.81997 6.26004 4.66663 5.72671 4.66663C4.73338 4.66663 3.67338 5.27329 3.00004 6.31329C2.05338 7.77996 2.22005 10.5266 3.74671 12.8733C4.29338 13.7133 5.02671 14.6533 5.98005 14.6666C6.38005 14.6733 6.64004 14.5533 6.92671 14.4266C7.25338 14.28 7.60671 14.12 8.22671 14.12C8.84671 14.1133 9.19338 14.28 9.52004 14.4266C9.80004 14.5533 10.0534 14.6733 10.4467 14.6666C11.4134 14.6533 12.1867 13.6133 12.7334 12.7733Z" fill="#202020"/>
<path fill-rule="evenodd" clip-rule="evenodd" d="M10.5598 1.33337C10.6665 2.06671 10.3665 2.79338 9.97313 3.30005C9.55313 3.84672 8.8198 4.27337 8.11313 4.2467C7.98647 3.54004 8.31313 2.81337 8.71313 2.3267C9.1598 1.79337 9.91313 1.38004 10.5598 1.33337Z" fill="#202020"/>
</svg>
