<svg width="34" height="34" viewBox="0 0 34 34" fill="none" xmlns="http://www.w3.org/2000/svg">
<g filter="url(#filter0_d_640_307)">
<circle cx="17" cy="17" r="16" fill="url(#paint0_linear_640_307)"/>
<circle cx="17" cy="17" r="15.3" stroke="url(#paint1_linear_640_307)" stroke-width="1.4"/>
</g>
<path d="M24.6796 18.679V18.672C24.6783 18.6667 24.6767 18.6615 24.6746 18.6565C24.628 18.5292 24.5737 18.4048 24.5122 18.2839L21.5893 11.6408C21.5612 11.5768 21.5214 11.5186 21.4719 11.4692C21.263 11.2602 21.0149 11.0944 20.7419 10.9813C20.4689 10.8682 20.1762 10.81 19.8807 10.81C19.5852 10.81 19.2926 10.8682 19.0196 10.9813C18.7466 11.0944 18.4985 11.2602 18.2896 11.4692C18.1844 11.5744 18.1253 11.717 18.125 11.8658V13.6236H15.875V11.8658C15.8751 11.7919 15.8606 11.7187 15.8324 11.6504C15.8041 11.5821 15.7627 11.5201 15.7105 11.4678C15.5016 11.2588 15.2535 11.093 14.9805 10.9799C14.7075 10.8668 14.4148 10.8086 14.1193 10.8086C13.8238 10.8086 13.5312 10.8668 13.2582 10.9799C12.9852 11.093 12.7371 11.2588 12.5282 11.4678C12.4787 11.5172 12.4389 11.5754 12.4107 11.6393L9.49065 18.2839C9.42914 18.4048 9.37491 18.5292 9.32823 18.6565C9.32628 18.6613 9.32463 18.6663 9.32331 18.6713C9.32331 18.6713 9.32331 18.6769 9.32331 18.679C9.03291 19.5181 9.08487 20.4378 9.46791 21.2389C9.85096 22.0399 10.5342 22.6577 11.3697 22.9584C12.2051 23.2591 13.1254 23.2185 13.9311 22.8453C14.7368 22.4722 15.363 21.7966 15.6739 20.9649C15.8109 20.5913 15.8799 20.1963 15.8778 19.7984V14.7486H18.1278V19.7991C18.1258 20.197 18.1948 20.592 18.3317 20.9656C18.6427 21.7973 19.2689 22.4729 20.0746 22.846C20.8803 23.2192 21.8006 23.2598 22.636 22.9591C23.4714 22.6584 24.1547 22.0406 24.5378 21.2396C24.9208 20.4385 24.9728 19.5188 24.6824 18.6797L24.6796 18.679ZM14.6143 20.5775C14.4066 21.1317 13.9889 21.5818 13.4516 21.8302C12.9144 22.0785 12.3009 22.1052 11.7441 21.9044C11.1873 21.7036 10.7321 21.2915 10.4771 20.7574C10.222 20.2233 10.1877 19.6102 10.3815 19.051L10.5088 18.7606C10.7427 18.316 11.1187 17.9624 11.5768 17.7563C12.035 17.5501 12.549 17.5033 13.0369 17.6231C13.5248 17.743 13.9585 18.0227 14.269 18.4177C14.5794 18.8127 14.7488 19.3002 14.75 19.8026V19.8111C14.75 20.0734 14.7041 20.3338 14.6143 20.5803V20.5775ZM22.2735 21.9254C21.9334 22.0499 21.5682 22.0904 21.2091 22.0436C20.8499 21.9968 20.5074 21.8639 20.2106 21.6564C19.9138 21.4488 19.6715 21.1727 19.5042 20.8514C19.337 20.5301 19.2498 20.1732 19.25 19.8111V19.8033C19.2519 19.3012 19.4217 18.8141 19.7324 18.4196C20.0431 18.0251 20.4768 17.7458 20.9645 17.6263C21.4523 17.5068 21.966 17.5539 22.4239 17.7601C22.8817 17.9663 23.2575 18.3197 23.4913 18.7641L23.6185 19.0545C23.8186 19.6137 23.7895 20.2293 23.5375 20.7671C23.2855 21.3049 22.8312 21.7212 22.2735 21.9254Z" fill="white"/>
<defs>
<filter id="filter0_d_640_307" x="0" y="0" width="34" height="34" filterUnits="userSpaceOnUse" color-interpolation-filters="sRGB">
<feFlood flood-opacity="0" result="BackgroundImageFix"/>
<feColorMatrix in="SourceAlpha" type="matrix" values="0 0 0 0 0 0 0 0 0 0 0 0 0 0 0 0 0 0 127 0" result="hardAlpha"/>
<feMorphology radius="1" operator="dilate" in="SourceAlpha" result="effect1_dropShadow_640_307"/>
<feOffset/>
<feComposite in2="hardAlpha" operator="out"/>
<feColorMatrix type="matrix" values="0 0 0 0 0.197546 0 0 0 0 0.0120245 0 0 0 0 0.267975 0 0 0 1 0"/>
<feBlend mode="normal" in2="BackgroundImageFix" result="effect1_dropShadow_640_307"/>
<feBlend mode="normal" in="SourceGraphic" in2="effect1_dropShadow_640_307" result="shape"/>
</filter>
<linearGradient id="paint0_linear_640_307" x1="17" y1="7" x2="17" y2="31" gradientUnits="userSpaceOnUse">
<stop stop-color="#220529"/>
<stop offset="1" stop-color="#55057B"/>
</linearGradient>
<linearGradient id="paint1_linear_640_307" x1="17" y1="1" x2="17" y2="33" gradientUnits="userSpaceOnUse">
<stop stop-color="#C495DA"/>
<stop offset="1" stop-color="#070209"/>
</linearGradient>
</defs>
</svg>
