<svg width="12" height="12" viewBox="0 0 12 12" fill="none" xmlns="http://www.w3.org/2000/svg">
<path d="M8 6.45V8.55C8 10.3 7.3 11 5.55 11H3.45C1.7 11 1 10.3 1 8.55V6.45C1 4.7 1.7 4 3.45 4H5.55C7.3 4 8 4.7 8 6.45Z" fill="#00AD55"/>
<path d="M8.55 1H6.45C5.11783 1 4.39697 1.40854 4.12853 2.37301C3.97921 2.90953 4.46 3.375 5.01691 3.375H5.55C7.65 3.375 8.625 4.35 8.625 6.45V6.98309C8.625 7.54001 9.09048 8.0208 9.62699 7.87147C10.5915 7.60303 11 6.88217 11 5.55V3.45C11 1.7 10.3 1 8.55 1Z" fill="#00AD55"/>
</svg>
