<svg width="22" height="22" viewBox="0 0 22 22" fill="none" xmlns="http://www.w3.org/2000/svg">
<path d="M20.1667 7.48186V7.54878C20.1667 8.33711 20.1667 8.7322 19.977 9.05486C19.7872 9.37753 19.4416 9.56911 18.7523 9.95319L18.0254 10.3565C18.5259 8.66253 18.6936 6.84203 18.755 5.28553L18.7642 5.08295L18.766 5.03528C19.3628 5.24244 19.6983 5.39736 19.9073 5.68703C20.1667 6.04728 20.1667 6.52578 20.1667 7.48186ZM1.83337 7.48186V7.54878C1.83337 8.33711 1.83337 8.7322 2.02312 9.05486C2.21287 9.37753 2.55846 9.56911 3.24779 9.95319L3.97562 10.3565C3.47421 8.66253 3.30646 6.84203 3.24504 5.28553L3.23587 5.08295L3.23496 5.03528C2.63729 5.24244 2.30179 5.39736 2.09279 5.68703C1.83337 6.04728 1.83337 6.52669 1.83337 7.48186Z" fill="#FCFCFC"/>
<path fill-rule="evenodd" clip-rule="evenodd" d="M11.0001 1.83334C12.6354 1.83334 13.982 1.97725 15.0123 2.15142C16.0564 2.32742 16.578 2.41542 17.0143 2.95259C17.4506 3.48975 17.4268 4.07 17.381 5.2305C17.2233 9.21709 16.3635 14.1955 11.6876 14.6355V17.875H12.9984C13.2102 17.8751 13.4155 17.9486 13.5792 18.083C13.743 18.2173 13.8552 18.4043 13.8967 18.612L14.0709 19.4792H16.5001C16.6824 19.4792 16.8573 19.5516 16.9862 19.6805C17.1151 19.8095 17.1876 19.9843 17.1876 20.1667C17.1876 20.349 17.1151 20.5239 16.9862 20.6528C16.8573 20.7817 16.6824 20.8542 16.5001 20.8542H5.50006C5.31772 20.8542 5.14285 20.7817 5.01392 20.6528C4.88499 20.5239 4.81256 20.349 4.81256 20.1667C4.81256 19.9843 4.88499 19.8095 5.01392 19.6805C5.14285 19.5516 5.31772 19.4792 5.50006 19.4792H7.92922L8.10339 18.612C8.14491 18.4043 8.25709 18.2173 8.42086 18.083C8.58464 17.9486 8.78989 17.8751 9.00172 17.875H10.3126V14.6355C5.63756 14.1955 4.77772 9.21617 4.62006 5.2305C4.57331 4.07 4.55039 3.48884 4.98672 2.95259C5.42214 2.41542 5.94372 2.32742 6.98781 2.15142C8.31407 1.93417 9.65613 1.82777 11.0001 1.83334ZM11.8727 5.68242L11.7829 5.52109C11.4346 4.895 11.2604 4.58334 11.0001 4.58334C10.7397 4.58334 10.5656 4.895 10.2172 5.52109L10.1274 5.68242C10.0284 5.86025 9.97889 5.94825 9.90189 6.00692C9.82397 6.06559 9.72772 6.08759 9.53522 6.13067L9.36106 6.171C8.68456 6.32409 8.34631 6.40017 8.26564 6.65867C8.18497 6.91717 8.41597 7.18759 8.87706 7.72659L8.99622 7.86592C9.12731 8.019 9.19331 8.09509 9.22264 8.19042C9.25197 8.28575 9.24189 8.3875 9.22264 8.59192L9.20431 8.778C9.13464 9.49759 9.09981 9.85784 9.30972 10.0173C9.52056 10.1768 9.83772 10.0311 10.4711 9.73959L10.6343 9.66442C10.8149 9.58192 10.9047 9.54067 11.0001 9.54067C11.0954 9.54067 11.1852 9.58192 11.3658 9.66442L11.529 9.73959C12.1624 10.032 12.4796 10.1768 12.6904 10.0173C12.9012 9.85784 12.8655 9.49759 12.7958 8.778L12.7775 8.59192C12.7582 8.3875 12.7481 8.28575 12.7775 8.19042C12.8068 8.09509 12.8728 8.019 13.0039 7.86592L13.1231 7.72659C13.5841 7.18759 13.8151 6.91809 13.7345 6.65867C13.6538 6.40017 13.3156 6.32409 12.6391 6.171L12.4649 6.13067C12.2724 6.08759 12.1761 6.0665 12.0982 6.00692C12.0212 5.94825 11.9717 5.86025 11.8727 5.68242Z" fill="#FCFCFC"/>
</svg>
