<svg width="32" height="32" viewBox="0 0 32 32" fill="none" xmlns="http://www.w3.org/2000/svg">
<rect width="32" height="32" rx="16" fill="#FE5349"/>
<path d="M23.5 18.0001C23.5 18.1327 23.4473 18.2599 23.3536 18.3536C23.2598 18.4474 23.1326 18.5001 23 18.5001H9C8.86739 18.5001 8.74021 18.4474 8.64645 18.3536C8.55268 18.2599 8.5 18.1327 8.5 18.0001C8.5 17.8675 8.55268 17.7403 8.64645 17.6465C8.74021 17.5528 8.86739 17.5001 9 17.5001H11.5281C11.5097 17.334 11.5003 17.1671 11.5 17.0001C11.5 15.8066 11.9741 14.662 12.818 13.8181C13.6619 12.9742 14.8065 12.5001 16 12.5001C17.1935 12.5001 18.3381 12.9742 19.182 13.8181C20.0259 14.662 20.5 15.8066 20.5 17.0001C20.4997 17.1671 20.4903 17.334 20.4719 17.5001H23C23.1326 17.5001 23.2598 17.5528 23.3536 17.6465C23.4473 17.7403 23.5 17.8675 23.5 18.0001ZM21 20.0001H11C10.8674 20.0001 10.7402 20.0528 10.6464 20.1465C10.5527 20.2403 10.5 20.3675 10.5 20.5001C10.5 20.6327 10.5527 20.7599 10.6464 20.8536C10.7402 20.9474 10.8674 21.0001 11 21.0001H21C21.1326 21.0001 21.2598 20.9474 21.3536 20.8536C21.4473 20.7599 21.5 20.6327 21.5 20.5001C21.5 20.3675 21.4473 20.2403 21.3536 20.1465C21.2598 20.0528 21.1326 20.0001 21 20.0001ZM13.0525 11.7238C13.0819 11.7826 13.1226 11.835 13.1722 11.878C13.2218 11.9211 13.2795 11.9539 13.3418 11.9747C13.4041 11.9955 13.4699 12.0038 13.5355 11.9991C13.601 11.9945 13.665 11.977 13.7238 11.9476C13.7825 11.9182 13.8349 11.8775 13.878 11.8279C13.921 11.7783 13.9539 11.7206 13.9746 11.6583C13.9954 11.596 14.0037 11.5301 13.9991 11.4646C13.9944 11.3991 13.9769 11.3351 13.9475 11.2763L13.4475 10.2763C13.3882 10.1576 13.2841 10.0674 13.1582 10.0254C13.0323 9.98347 12.8949 9.99323 12.7762 10.0526C12.6576 10.1119 12.5673 10.216 12.5254 10.3419C12.4834 10.4677 12.4932 10.6051 12.5525 10.7238L13.0525 11.7238ZM9.27625 14.4476L10.2762 14.9476C10.3949 15.0069 10.5322 15.0167 10.658 14.9748C10.7838 14.9329 10.8878 14.8427 10.9472 14.7241C11.0065 14.6055 11.0163 14.4682 10.9744 14.3424C10.9325 14.2166 10.8424 14.1125 10.7238 14.0532L9.72375 13.5532C9.66502 13.5238 9.60109 13.5063 9.53559 13.5016C9.47009 13.4969 9.40431 13.5052 9.34201 13.526C9.2797 13.5467 9.2221 13.5795 9.17248 13.6225C9.12286 13.6656 9.0822 13.7179 9.05281 13.7766C9.02343 13.8354 9.0059 13.8993 9.00123 13.9648C8.99655 14.0303 9.00483 14.0961 9.02558 14.1584C9.04632 14.2207 9.07914 14.2783 9.12215 14.3279C9.16516 14.3775 9.21752 14.4182 9.27625 14.4476ZM21.5 15.0001C21.5774 15.0001 21.6538 14.9821 21.7231 14.9476L22.7231 14.4476C22.7819 14.4182 22.8342 14.3775 22.8772 14.3279C22.9202 14.2783 22.9531 14.2207 22.9738 14.1584C22.9945 14.0961 23.0028 14.0303 22.9981 13.9648C22.9935 13.8993 22.9759 13.8354 22.9466 13.7766C22.9172 13.7179 22.8765 13.6656 22.8269 13.6225C22.7773 13.5795 22.7197 13.5467 22.6574 13.526C22.5951 13.5052 22.5293 13.4969 22.4638 13.5016C22.3983 13.5063 22.3344 13.5238 22.2756 13.5532L21.2756 14.0532C21.175 14.1037 21.0944 14.1867 21.0468 14.2887C20.9992 14.3907 20.9874 14.5058 21.0134 14.6154C21.0393 14.7249 21.1015 14.8225 21.1898 14.8923C21.2781 14.9621 21.3874 15.0001 21.5 15.0001ZM18.2762 11.9476C18.335 11.977 18.399 11.9946 18.4645 11.9992C18.5301 12.0039 18.5959 11.9956 18.6583 11.9748C18.7206 11.9541 18.7782 11.9212 18.8279 11.8781C18.8775 11.8351 18.9181 11.7826 18.9475 11.7238L19.4475 10.7238C19.5068 10.6051 19.5166 10.4677 19.4746 10.3419C19.4327 10.216 19.3424 10.1119 19.2238 10.0526C19.1051 9.99323 18.9677 9.98347 18.8418 10.0254C18.7159 10.0674 18.6118 10.1576 18.5525 10.2763L18.0525 11.2763C18.0231 11.3351 18.0055 11.3991 18.0008 11.4646C17.9962 11.5302 18.0044 11.596 18.0252 11.6583C18.046 11.7207 18.0789 11.7783 18.1219 11.8279C18.165 11.8776 18.2175 11.9182 18.2762 11.9476Z" fill="#FCFCFC"/>
</svg>
