<svg width="20" height="20" viewBox="0 0 20 20" fill="none" xmlns="http://www.w3.org/2000/svg">
<path d="M3.4375 9.375H16.5625C16.6454 9.375 16.7249 9.34208 16.7835 9.28347C16.8421 9.22487 16.875 9.14538 16.875 9.0625V6.875C16.8751 6.7929 16.859 6.71159 16.8276 6.63572C16.7962 6.55985 16.7502 6.4909 16.6922 6.43281L12.3172 2.05781C12.2591 1.99979 12.1902 1.95378 12.1143 1.92241C12.0384 1.89105 11.9571 1.87494 11.875 1.875H4.375C4.04348 1.875 3.72554 2.0067 3.49112 2.24112C3.2567 2.47554 3.125 2.79348 3.125 3.125V9.0625C3.125 9.14538 3.15792 9.22487 3.21653 9.28347C3.27514 9.34208 3.35462 9.375 3.4375 9.375ZM11.875 3.4375L15.3125 6.875H11.875V3.4375ZM17.5 11.9164C17.486 12.0771 17.4118 12.2265 17.2923 12.3347C17.1727 12.4429 17.0167 12.502 16.8555 12.5H15V13.75H16.2289C16.3902 13.7478 16.5463 13.8068 16.6659 13.9151C16.7855 14.0233 16.8596 14.1729 16.8734 14.3336C16.8791 14.4191 16.8672 14.5048 16.8383 14.5855C16.8094 14.6662 16.7643 14.7401 16.7057 14.8026C16.6471 14.865 16.5762 14.9148 16.4976 14.9488C16.4189 14.9828 16.3341 15.0002 16.2484 15H15V16.2289C15.0022 16.3902 14.9432 16.5463 14.8349 16.6659C14.7267 16.7855 14.5771 16.8596 14.4164 16.8734C14.3309 16.8791 14.2452 16.8672 14.1645 16.8383C14.0838 16.8094 14.0099 16.7643 13.9474 16.7057C13.885 16.6471 13.8352 16.5762 13.8012 16.4976C13.7672 16.4189 13.7498 16.3341 13.75 16.2484V11.875C13.75 11.7092 13.8158 11.5503 13.9331 11.4331C14.0503 11.3158 14.2092 11.25 14.375 11.25H16.875C16.9607 11.2498 17.0455 11.2672 17.1241 11.3012C17.2028 11.3352 17.2736 11.385 17.3323 11.4474C17.3909 11.5099 17.436 11.5838 17.4649 11.6645C17.4937 11.7452 17.5057 11.8309 17.5 11.9164ZM5 11.25H3.75C3.58424 11.25 3.42527 11.3158 3.30806 11.4331C3.19085 11.5503 3.125 11.7092 3.125 11.875V16.2289C3.12243 16.3905 3.18123 16.547 3.28954 16.6669C3.39785 16.7868 3.5476 16.8612 3.70859 16.875C3.79409 16.8807 3.87983 16.8687 3.96051 16.8399C4.04118 16.811 4.11506 16.7659 4.17755 16.7073C4.24005 16.6486 4.28983 16.5778 4.32379 16.4991C4.35776 16.4205 4.37519 16.3357 4.375 16.25V15.625H4.95313C6.14375 15.625 7.15156 14.6938 7.18672 13.5039C7.19561 13.2112 7.14563 12.9196 7.03973 12.6466C6.93384 12.3735 6.77418 12.1245 6.57025 11.9143C6.36631 11.7041 6.12224 11.537 5.85251 11.4229C5.58278 11.3088 5.29288 11.25 5 11.25ZM4.97266 14.375H4.375V12.5H5C5.13113 12.4994 5.26092 12.5263 5.381 12.579C5.50108 12.6316 5.60878 12.7089 5.69713 12.8058C5.78548 12.9027 5.85253 13.0171 5.89393 13.1415C5.93533 13.2659 5.95018 13.3976 5.9375 13.5281C5.91022 13.7638 5.79641 13.9809 5.61814 14.1373C5.43987 14.2938 5.20984 14.3785 4.97266 14.375ZM10 11.25H8.75C8.58424 11.25 8.42527 11.3158 8.30806 11.4331C8.19085 11.5503 8.125 11.7092 8.125 11.875V16.25C8.125 16.4158 8.19085 16.5747 8.30806 16.6919C8.42527 16.8092 8.58424 16.875 8.75 16.875H9.94688C11.4828 16.875 12.7758 15.6656 12.8117 14.1305C12.8208 13.7555 12.7548 13.3825 12.6175 13.0335C12.4803 12.6844 12.2746 12.3663 12.0127 12.0979C11.7507 11.8295 11.4376 11.6162 11.092 11.4706C10.7463 11.325 10.3751 11.25 10 11.25ZM9.96172 15.625H9.375V12.5H10C10.2104 12.4998 10.4186 12.5422 10.6122 12.6244C10.8058 12.7067 10.9808 12.8272 11.1267 12.9787C11.2726 13.1302 11.3864 13.3097 11.4613 13.5062C11.5362 13.7028 11.5706 13.9125 11.5625 14.1227C11.5297 14.968 10.8078 15.625 9.96172 15.625Z" fill="white"/>
</svg>
