<svg width="66" height="16" viewBox="0 0 66 16" fill="none" xmlns="http://www.w3.org/2000/svg">
<path d="M65.7776 5.0659L60.8145 8.96102H62.5914L63.9479 13.1603L59.743 9.78921L55.5668 13.0625L57.0202 8.51267L58.4987 7.37001H56.724L53.8228 5.0659H58.1345L59.7331 0L60.9916 4.1627L59.7637 5.07058" fill="#202020"/>
<path d="M10.1827 6.58143H7.53961V8.08555H9.7212V9.61066H7.53961V11.2737H10.1827V12.8095H5.76709V5.05624H10.1827" fill="#202020"/>
<path d="M13.5719 8.5417C13.7817 8.5417 13.9671 8.46407 14.1277 8.30874C14.2886 8.14627 14.3691 7.95916 14.3691 7.74742V7.27063C14.3691 7.05897 14.2886 6.8752 14.1277 6.71986C13.9671 6.55763 13.7817 6.47635 13.5719 6.47635H12.9426C12.7329 6.47635 12.5475 6.55763 12.3867 6.71986C12.2259 6.8752 12.1455 7.05897 12.1455 7.27063V7.74742C12.1455 7.95916 12.2259 8.14627 12.3867 8.30874C12.5475 8.46407 12.7329 8.5417 12.9426 8.5417H13.5719ZM13.5719 4.94063C13.9846 4.94063 14.348 5.00408 14.6627 5.13122C14.9844 5.25131 15.2501 5.41718 15.4599 5.62908C15.6765 5.84082 15.8408 6.08797 15.9527 6.37052C16.0647 6.653 16.1206 6.95291 16.1206 7.27063V10.4695C16.1206 10.8084 16.0577 11.1261 15.9318 11.4227C15.8059 11.7123 15.6346 11.9664 15.4179 12.1853C15.201 12.4042 14.9459 12.5772 14.6523 12.7043C14.3655 12.8314 14.0545 12.8949 13.7187 12.8949H12.7958C12.4602 12.8949 12.1455 12.8314 11.8519 12.7043C11.5652 12.5772 11.3134 12.4042 11.0967 12.1853C10.88 11.9664 10.7087 11.7123 10.5828 11.4227C10.457 11.1261 10.394 10.8084 10.394 10.4695H12.0092C12.0092 10.6883 12.0826 10.8754 12.2295 11.0308C12.3833 11.1862 12.5721 11.2638 12.7958 11.2638H13.7187C13.9426 11.2638 14.1277 11.1862 14.2747 11.0308C14.4286 10.8754 14.5054 10.6883 14.5054 10.4695V9.95053C14.2328 10.0352 13.9215 10.0776 13.5719 10.0776H12.9426C12.5301 10.0776 12.163 10.0175 11.8413 9.89761C11.5267 9.7704 11.261 9.60088 11.0443 9.38922C10.8275 9.17724 10.6632 8.93009 10.5513 8.64761C10.4464 8.36514 10.394 8.06515 10.394 7.74742V7.27063C10.394 6.95291 10.4464 6.653 10.5513 6.37052C10.6632 6.08797 10.8275 5.84082 11.0443 5.62908C11.261 5.41718 11.5267 5.25131 11.8413 5.13122C12.163 5.00408 12.5301 4.94063 12.9426 4.94063" fill="#202020"/>
<path d="M21.6795 10.7229C21.6656 11.0265 21.5992 11.3125 21.4803 11.5809C21.3614 11.8492 21.1936 12.0821 20.9769 12.2799C20.76 12.4776 20.498 12.6365 20.1903 12.7565C19.8825 12.8695 19.5294 12.926 19.1309 12.926H18.8897C18.4911 12.926 18.1345 12.8695 17.8198 12.7565C17.5121 12.6365 17.2499 12.4776 17.0332 12.2799C16.8234 12.0821 16.6591 11.8492 16.5402 11.5809C16.4213 11.3125 16.3549 11.0265 16.341 10.7229V10.7123C16.334 10.6841 16.3306 10.6452 16.3306 10.5958H16.341L16.3306 9.58959H18.0925V10.6488C18.0995 10.7476 18.124 10.8429 18.166 10.9347C18.2149 11.0195 18.2744 11.0971 18.3443 11.1678C18.4212 11.2384 18.5052 11.2948 18.5959 11.3372C18.6939 11.3725 18.7917 11.3902 18.8897 11.3902H19.1309C19.2357 11.3902 19.3337 11.369 19.4247 11.3266C19.5225 11.2843 19.6064 11.2277 19.6762 11.1572C19.7532 11.0795 19.8126 10.9948 19.8546 10.903C19.8965 10.8041 19.9174 10.7017 19.9174 10.5958H19.9281L19.9174 6.63459H17.2535V5.05624H21.6795V10.7229Z" fill="#202020"/>
<path d="M23.8907 10.4369H25.747L24.8136 6.94162L23.8907 10.4369ZM26.3763 12.7989L26.156 11.9515H23.4816L23.2614 12.7989H21.4258L23.4921 5.05624H26.1455L28.2117 12.7989" fill="#202020"/>
<path d="M30.7735 8.08704C31.1093 8.08704 31.4203 8.15049 31.7071 8.27763C32.0006 8.40476 32.2559 8.57777 32.4725 8.79679C32.6965 9.01558 32.8711 9.27335 32.997 9.56977C33.1229 9.85937 33.1858 10.1736 33.1858 10.5126C33.1858 10.8444 33.1229 11.1586 32.997 11.4552C32.8711 11.7518 32.6965 12.0095 32.4725 12.2284C32.2559 12.4473 32.0006 12.6203 31.7071 12.7474C31.4203 12.8745 31.1093 12.938 30.7735 12.938H30.2385C29.903 12.938 29.5883 12.8745 29.2947 12.7474C29.008 12.6203 28.7562 12.4473 28.5395 12.2284C28.3229 12.0095 28.1514 11.7518 28.0256 11.4552C27.8997 11.1586 27.8369 10.8444 27.8369 10.5126H29.452C29.452 10.7314 29.5255 10.9185 29.6723 11.0739C29.8261 11.2292 30.0149 11.3069 30.2385 11.3069H30.7735C30.9972 11.3069 31.1862 11.2292 31.34 11.0739C31.4938 10.9185 31.5708 10.7314 31.5708 10.5126C31.5708 10.2866 31.4938 10.0959 31.34 9.94049C31.1862 9.78515 30.9972 9.70752 30.7735 9.70752H30.2385C29.903 9.70752 29.5883 9.65112 29.2947 9.53816C29.008 9.41815 28.7562 9.25568 28.5395 9.05083C28.3229 8.84607 28.1514 8.60248 28.0256 8.32C27.8997 8.03753 27.8369 7.72685 27.8369 7.38797C27.8369 7.05606 27.8997 6.7419 28.0256 6.44524C28.1514 6.14874 28.3229 5.89098 28.5395 5.67219C28.7562 5.45316 29.008 5.28024 29.2947 5.1531C29.5883 5.02588 29.903 4.96243 30.2385 4.96243H30.7735C31.1093 4.96243 31.4203 5.02588 31.7071 5.1531C32.0006 5.28024 32.2559 5.45316 32.4725 5.67219C32.6965 5.89098 32.8711 6.14874 32.997 6.44524C33.1229 6.7419 33.1858 7.05606 33.1858 7.38797H31.5708C31.5708 7.16902 31.4938 6.982 31.34 6.82666C31.1862 6.67132 30.9972 6.59369 30.7735 6.59369H30.2385C30.0149 6.59369 29.8261 6.67132 29.6723 6.82666C29.5255 6.982 29.452 7.16902 29.452 7.38797C29.452 7.61389 29.5255 7.78689 29.6723 7.9069C29.8261 8.02699 30.0149 8.08704 30.2385 8.08704H30.7735Z" fill="#202020"/>
<path d="M36.4146 9.58092C36.6245 9.58092 36.8098 9.50329 36.9707 9.34795C37.1315 9.18548 37.2118 8.9983 37.2118 8.7864V7.38835C37.2118 7.17645 37.1315 6.99291 36.9707 6.83757C36.8098 6.67518 36.6245 6.59407 36.4146 6.59407H35.1666V9.58092H36.4146ZM38.9632 8.7864C38.9632 9.10421 38.9004 9.40791 38.7745 9.69736C38.6557 9.98681 38.4844 10.2411 38.2606 10.46C38.0369 10.6718 37.7676 10.8377 37.453 10.9577C37.1454 11.0778 36.7994 11.1307 36.4146 11.1166H35.1666V12.8114H33.394V5.05811H36.4146C36.7783 5.03703 37.1104 5.0829 37.4111 5.19586C37.7187 5.30882 37.9845 5.4678 38.2082 5.67257C38.432 5.87029 38.6068 6.11023 38.7325 6.39271C38.8655 6.66805 38.9424 6.95766 38.9632 7.26121" fill="#202020"/>
<path d="M39.3447 12.8125H41.1066V5.05937H39.3447V12.8125Z" fill="#202020"/>
<path d="M45.1667 7.37781C45.1667 7.27175 45.1421 7.17304 45.0933 7.08116C45.0514 6.98238 44.9919 6.89762 44.915 6.82704C44.8449 6.74941 44.7612 6.68936 44.6632 6.64698C44.5723 6.6046 44.4744 6.58329 44.3696 6.58329H43.3521V9.57014H44.3696C44.5793 9.57014 44.7646 9.49251 44.9255 9.33718C45.0864 9.17471 45.1667 8.98776 45.1667 8.77586V7.37781ZM44.1494 11.1061H43.3521V12.8114H41.5796V5.05811H44.3696C44.7331 5.03703 45.0653 5.0829 45.3661 5.19586C45.6737 5.30169 45.9393 5.45719 46.163 5.66188C46.3867 5.86664 46.5617 6.10674 46.6876 6.38217C46.8203 6.65752 46.8972 6.94713 46.9183 7.25067V8.77586C46.9183 9.15023 46.8378 9.49964 46.6769 9.8245C46.5231 10.1422 46.2994 10.4106 46.0058 10.6295L47.2538 12.8114H45.2086" fill="#202020"/>
<path d="M47.4526 12.8125H49.2147V5.05937H47.4526V12.8125Z" fill="#202020"/>
<path d="M52.6241 5.05624L54.6586 6.63459H53.0016V12.8095H51.2291V6.63459H49.5718V5.05624" fill="#202020"/>
<path d="M3.54481 6.49457H1.77236V11.2317H3.54481V6.49457ZM5.29819 11.402C5.29819 12.1673 4.68384 12.7858 3.92603 12.7858H0V4.94063C1.01329 4.94063 2.63999 4.94063 3.92658 4.94063C4.68439 4.94063 5.29819 5.55977 5.29819 6.32505" fill="#202020"/>
</svg>
