<svg width="14" height="14" viewBox="0 0 14 14" fill="none" xmlns="http://www.w3.org/2000/svg">
<path d="M6.99984 12.6292C6.819 12.6292 6.644 12.6058 6.49817 12.5533C4.26984 11.7892 0.729004 9.07667 0.729004 5.06917C0.729004 3.0275 2.37984 1.37083 4.40984 1.37083C5.39567 1.37083 6.31734 1.75583 6.99984 2.44417C7.68234 1.75583 8.604 1.37083 9.58984 1.37083C11.6198 1.37083 13.2707 3.03333 13.2707 5.06917C13.2707 9.0825 9.72984 11.7892 7.5015 12.5533C7.35567 12.6058 7.18067 12.6292 6.99984 12.6292ZM4.40984 2.24583C2.864 2.24583 1.604 3.51167 1.604 5.06917C1.604 9.05333 5.4365 11.27 6.784 11.7308C6.889 11.7658 7.1165 11.7658 7.2215 11.7308C8.56317 11.27 12.4015 9.05917 12.4015 5.06917C12.4015 3.51167 11.1415 2.24583 9.59567 2.24583C8.709 2.24583 7.8865 2.66 7.35567 3.3775C7.19234 3.59917 6.819 3.59917 6.65567 3.3775C6.11317 2.65417 5.2965 2.24583 4.40984 2.24583Z" fill="#454545"/>
</svg>
