<svg width="24" height="24" viewBox="0 0 24 24" fill="none" xmlns="http://www.w3.org/2000/svg">
<path fill-rule="evenodd" clip-rule="evenodd" d="M11.943 1.24982H12.057C14.366 1.24982 16.175 1.24982 17.587 1.43982C19.031 1.63382 20.171 2.03982 21.066 2.93382C21.961 3.82882 22.366 4.96882 22.56 6.41382C22.75 7.82482 22.75 9.63382 22.75 11.9428V12.0568C22.75 14.3658 22.75 16.1748 22.56 17.5868C22.366 19.0308 21.96 20.1708 21.066 21.0658C20.171 21.9608 19.031 22.3658 17.586 22.5598C16.175 22.7498 14.366 22.7498 12.057 22.7498H11.943C9.634 22.7498 7.825 22.7498 6.413 22.5598C4.969 22.3658 3.829 21.9598 2.934 21.0658C2.039 20.1708 1.634 19.0308 1.44 17.5858C1.25 16.1748 1.25 14.3658 1.25 12.0568V11.9428C1.25 9.63382 1.25 7.82482 1.44 6.41282C1.634 4.96882 2.04 3.82882 2.934 2.93382C3.829 2.03882 4.969 1.63382 6.414 1.43982C7.825 1.24982 9.634 1.24982 11.943 1.24982ZM6.25 2.98182C5.185 3.16482 4.508 3.48182 3.995 3.99482C3.481 4.50782 3.165 5.18482 2.982 6.24982H6.25V2.98182ZM7.75 2.81982V11.2498H16.25V2.81982C15.124 2.74982 13.742 2.74982 12 2.74982C10.258 2.74982 8.876 2.74982 7.75 2.81982ZM17.75 2.98182V6.24982H21.018C20.835 5.18482 20.518 4.50782 20.005 3.99482C19.492 3.48082 18.815 3.16482 17.75 2.98182ZM21.18 7.74982H17.75V11.2498H21.25C21.248 9.85482 21.239 8.70982 21.18 7.74982ZM21.25 12.7498H17.75V16.2498H21.18C21.239 15.2898 21.248 14.1448 21.25 12.7498ZM21.018 17.7498H17.75V21.0178C18.815 20.8348 19.492 20.5178 20.005 20.0048C20.519 19.4918 20.835 18.8148 21.018 17.7498ZM16.25 21.1798V12.7498H7.75V21.1798C8.876 21.2498 10.258 21.2498 12 21.2498C13.742 21.2498 15.124 21.2498 16.25 21.1798ZM6.25 21.0178V17.7498H2.982C3.165 18.8148 3.482 19.4918 3.995 20.0048C4.508 20.5188 5.185 20.8348 6.25 21.0178ZM2.82 16.2498H6.25V12.7498H2.75C2.752 14.1448 2.761 15.2898 2.82 16.2498ZM2.75 11.2498H6.25V7.74982H2.82C2.761 8.70982 2.752 9.85482 2.75 11.2498Z" fill="#202020"/>
<rect x="4.96523" y="13.2732" width="14.0692" height="6.68462" rx="2.65" fill="#FE5349"/>
<rect x="4.96523" y="13.2732" width="14.0692" height="6.68462" rx="2.65" stroke="#FCFCFC" stroke-width="0.7"/>
<path d="M8.34447 18.1155V15.457H8.84662V17.6466H9.99124V18.1155H8.34447ZM10.4159 18.1155V15.457H10.9181V18.1155H10.4159ZM12.1177 18.1155L11.3054 15.457H11.8223L12.4869 17.6429L13.1626 15.457H13.6795L12.8672 18.1155H12.1177ZM14.0315 18.1155V15.457H15.7669V15.9259H14.5336V16.4946H15.5453V16.9635H14.5336V17.6466H15.7669V18.1155H14.0315Z" fill="#FCFCFC"/>
</svg>
