<svg width="14" height="14" viewBox="0 0 14 14" fill="none" xmlns="http://www.w3.org/2000/svg">
<path d="M10.4242 12.7575C10.2434 12.7575 10.0625 12.7108 9.89921 12.6117L7.56005 11.2233C7.31505 11.2175 7.07005 11.2 6.83671 11.165C6.67921 11.1417 6.54504 11.0367 6.48671 10.885C6.42838 10.7333 6.45754 10.57 6.56254 10.4475C6.94755 9.99832 7.14588 9.46166 7.14588 8.88999C7.14588 7.47833 5.90338 6.32915 4.37504 6.32915C3.80338 6.32915 3.25504 6.48668 2.79421 6.79001C2.66587 6.87168 2.50838 6.88334 2.36838 6.81917C2.23421 6.755 2.13505 6.62665 2.11755 6.47499C2.10005 6.31165 2.08838 6.14833 2.08838 5.97917C2.08838 3.08583 4.59671 0.735006 7.67671 0.735006C10.7567 0.735006 13.265 3.08583 13.265 5.97917C13.265 7.56583 12.53 9.02416 11.235 10.0217L11.4334 11.6083C11.48 12.005 11.305 12.3783 10.9725 12.5942C10.8092 12.6992 10.6167 12.7575 10.4242 12.7575ZM7.67087 10.3425C7.75254 10.3367 7.83421 10.36 7.90421 10.4067L10.3484 11.8592C10.4125 11.9 10.465 11.8825 10.5 11.8592C10.5292 11.8417 10.5759 11.795 10.5642 11.7133L10.3367 9.86999C10.3192 9.70666 10.3892 9.54918 10.5175 9.45585C11.7075 8.62168 12.39 7.34999 12.39 5.96749C12.39 3.55832 10.2784 1.59833 7.67671 1.59833C5.17421 1.59833 3.12088 3.41835 2.96921 5.70502C3.40671 5.53585 3.87921 5.44251 4.36921 5.44251C6.38171 5.44251 8.01505 6.98248 8.01505 8.87832C8.02088 9.39165 7.89837 9.88749 7.67087 10.3425Z" fill="#454545"/>
<path d="M2.67153 13.2709C2.51987 13.2709 2.37403 13.2301 2.23986 13.1426C1.97736 12.9734 1.83737 12.6817 1.87237 12.3725L1.98904 11.4742C1.20154 10.8325 0.734863 9.88169 0.734863 8.88419C0.734863 7.74669 1.32987 6.68503 2.32737 6.0492C2.9282 5.65837 3.63986 5.44839 4.3807 5.44839C6.3932 5.44839 8.02653 6.98836 8.02653 8.88419C8.02653 9.65419 7.74653 10.4125 7.2332 11.0134C6.57403 11.8125 5.5882 12.2792 4.5032 12.3142L3.07987 13.16C2.95153 13.2359 2.81153 13.2709 2.67153 13.2709ZM4.37487 6.32339C3.8032 6.32339 3.25486 6.48087 2.79403 6.78421C2.04736 7.26254 1.60403 8.04419 1.60403 8.88419C1.60403 9.69502 2.0007 10.4359 2.7007 10.9142C2.83487 11.0075 2.90486 11.165 2.88736 11.3284L2.75903 12.3259L4.1532 11.4975C4.2232 11.4567 4.29903 11.4334 4.37487 11.4334C5.23237 11.4334 6.0432 11.0659 6.55654 10.4417C6.94154 9.98672 7.1457 9.45002 7.1457 8.87835C7.1457 7.47252 5.9032 6.32339 4.37487 6.32339Z" fill="#454545"/>
</svg>
