<svg width="14" height="14" viewBox="0 0 14 14" fill="none" xmlns="http://www.w3.org/2000/svg">
<path d="M8.29485 12.6175C7.60652 12.6175 6.63235 12.1333 5.86235 9.8175L5.44235 8.5575L4.18235 8.1375C1.87235 7.3675 1.38818 6.39333 1.38818 5.705C1.38818 5.0225 1.87235 4.0425 4.18235 3.26667L9.13485 1.61583C10.3715 1.20167 11.404 1.32417 12.0398 1.95417C12.6757 2.58417 12.7982 3.6225 12.384 4.85917L10.7332 9.81167C9.95735 12.1333 8.98318 12.6175 8.29485 12.6175ZM4.45652 4.10083C2.83485 4.64333 2.25735 5.285 2.25735 5.705C2.25735 6.125 2.83485 6.76667 4.45652 7.30333L5.92652 7.79333C6.05485 7.83417 6.15985 7.93917 6.20068 8.0675L6.69068 9.5375C7.22735 11.1592 7.87485 11.7367 8.29485 11.7367C8.71485 11.7367 9.35652 11.1592 9.89902 9.5375L11.5498 4.585C11.8473 3.68667 11.7948 2.95167 11.4157 2.5725C11.0365 2.19333 10.3015 2.14667 9.40902 2.44417L4.45652 4.10083Z" fill="#454545"/>
<path d="M5.89747 8.4C5.78663 8.4 5.6758 8.35917 5.5883 8.27167C5.41913 8.1025 5.41913 7.8225 5.5883 7.65333L7.67663 5.55917C7.8458 5.39 8.1258 5.39 8.29497 5.55917C8.46413 5.72833 8.46413 6.00833 8.29497 6.1775L6.20663 8.27167C6.12497 8.35917 6.0083 8.4 5.89747 8.4Z" fill="#454545"/>
</svg>
