<svg width="55" height="48" viewBox="0 0 55 48" fill="none" xmlns="http://www.w3.org/2000/svg">
<path d="M51.2204 27C51.2204 38.5981 39.7541 48 25.6102 48C19.9176 48 14.6586 46.4769 10.4065 43.9005L4.29861 46.2041C3.59477 46.4695 2.90305 45.7885 3.157 45.0802L5.12141 39.6006C1.90554 36.0911 0 31.7279 0 27C0 15.4019 11.4663 6 25.6102 6C39.7541 6 51.2204 15.4019 51.2204 27Z" fill="#66F2CD"/>
<path d="M14.0262 30.6495C16.041 30.6495 17.6743 29.0155 17.6743 26.9998C17.6743 24.9841 16.041 23.3501 14.0262 23.3501C12.0115 23.3501 10.3782 24.9841 10.3782 26.9998C10.3782 29.0155 12.0115 30.6495 14.0262 30.6495Z" fill="white"/>
<path d="M25.6102 30.6495C27.625 30.6495 29.2583 29.0155 29.2583 26.9998C29.2583 24.9841 27.625 23.3501 25.6102 23.3501C23.5954 23.3501 21.9622 24.9841 21.9622 26.9998C21.9622 29.0155 23.5954 30.6495 25.6102 30.6495Z" fill="white"/>
<path d="M37.1943 30.6495C39.2091 30.6495 40.8424 29.0155 40.8424 26.9998C40.8424 24.9841 39.2091 23.3501 37.1943 23.3501C35.1796 23.3501 33.5463 24.9841 33.5463 26.9998C33.5463 29.0155 35.1796 30.6495 37.1943 30.6495Z" fill="white"/>
<path d="M51.2203 26.9997C51.2203 38.5978 39.7541 47.9997 25.6103 47.9997C22.4133 47.9997 19.3532 47.5195 16.531 46.6419C23.5194 46.3003 30.3666 44.0455 35.4263 40.2621C42.207 35.1905 45.5976 27.5031 44.2507 20.2541C43.4189 15.7784 40.7941 11.5414 36.9427 8.16309C45.4021 11.591 51.2203 18.7382 51.2203 26.9997Z" fill="#56DBC8"/>
<path d="M18.5352 12.4712C19.0958 13.3035 18.6509 14.4372 17.6798 14.6891C15.818 15.172 14.0753 15.9089 12.1966 17.0076C9.71733 18.4577 7.60496 20.4755 5.94501 23.0749C5.6488 23.5388 5.07361 23.7397 4.55193 23.5646C4.54484 23.5622 4.5378 23.5599 4.53071 23.5575C3.8666 23.3345 3.53619 22.5943 3.80635 21.9477C5.78719 17.2065 9.49279 12.9088 15.9261 10.475C16.6048 10.2182 17.37 10.4977 17.7196 11.1339C17.9712 11.5916 18.2434 12.038 18.5352 12.4712Z" fill="#92FFD5"/>
<rect x="31.9854" width="22.5" height="22.5" rx="11.25" fill="#FCFCFC"/>
<path d="M43.2354 3.75C39.1029 3.75 35.7354 7.1175 35.7354 11.25C35.7354 15.3825 39.1029 18.75 43.2354 18.75C47.3679 18.75 50.7354 15.3825 50.7354 11.25C50.7354 7.1175 47.3679 3.75 43.2354 3.75ZM46.8204 9.525L42.5679 13.7775C42.4629 13.8825 42.3204 13.9425 42.1704 13.9425C42.0204 13.9425 41.8779 13.8825 41.7729 13.7775L39.6504 11.655C39.4329 11.4375 39.4329 11.0775 39.6504 10.86C39.8679 10.6425 40.2279 10.6425 40.4454 10.86L42.1704 12.585L46.0254 8.73C46.2429 8.5125 46.6029 8.5125 46.8204 8.73C47.0379 8.9475 47.0379 9.3 46.8204 9.525Z" fill="#FE5349"/>
</svg>
