<svg width="11" height="11" viewBox="0 0 11 11" fill="none" xmlns="http://www.w3.org/2000/svg">
<path d="M5.50008 10.4272C2.78216 10.4272 0.572998 8.218 0.572998 5.50008C0.572998 2.78216 2.78216 0.572998 5.50008 0.572998C8.218 0.572998 10.4272 2.78216 10.4272 5.50008C10.4272 8.218 8.218 10.4272 5.50008 10.4272ZM5.50008 1.2605C3.16258 1.2605 1.2605 3.16258 1.2605 5.50008C1.2605 7.83758 3.16258 9.73967 5.50008 9.73967C7.83758 9.73967 9.73967 7.83758 9.73967 5.50008C9.73967 3.16258 7.83758 1.2605 5.50008 1.2605Z" fill="#6A6A6A"/>
<path d="M7.20038 7.30131C7.14079 7.30131 7.08121 7.28755 7.02621 7.25089L5.60538 6.40297C5.25246 6.19214 4.99121 5.72922 4.99121 5.32131V3.44214C4.99121 3.25422 5.14704 3.09839 5.33496 3.09839C5.52288 3.09839 5.67871 3.25422 5.67871 3.44214V5.32131C5.67871 5.4863 5.81621 5.72922 5.95829 5.81172L7.37913 6.65964C7.54413 6.75589 7.59454 6.96672 7.49829 7.13172C7.42954 7.24172 7.31496 7.30131 7.20038 7.30131Z" fill="#6A6A6A"/>
</svg>
