<svg width="11" height="11" viewBox="0 0 11 11" fill="none" xmlns="http://www.w3.org/2000/svg">
<path d="M5.50007 6.49458C4.52382 6.49458 3.72632 5.70166 3.72632 4.72083C3.72632 3.73999 4.52382 2.95166 5.50007 2.95166C6.47632 2.95166 7.27382 3.74458 7.27382 4.72541C7.27382 5.70624 6.47632 6.49458 5.50007 6.49458ZM5.50007 3.63916C4.90424 3.63916 4.41382 4.12499 4.41382 4.72541C4.41382 5.32583 4.89965 5.81166 5.50007 5.81166C6.10048 5.81166 6.58632 5.32583 6.58632 4.72541C6.58632 4.12499 6.0959 3.63916 5.50007 3.63916Z" fill="#6A6A6A"/>
<path d="M5.50002 10.4317C4.82169 10.4317 4.13877 10.1751 3.6071 9.66633C2.25502 8.36466 0.760853 6.28841 1.3246 3.818C1.83335 1.57675 3.79044 0.572998 5.50002 0.572998C5.50002 0.572998 5.50002 0.572998 5.5046 0.572998C7.21419 0.572998 9.17127 1.57675 9.68002 3.82258C10.2392 6.293 8.74502 8.36466 7.39294 9.66633C6.86127 10.1751 6.17835 10.4317 5.50002 10.4317ZM5.50002 1.2605C4.16627 1.2605 2.4521 1.97091 1.99835 3.96925C1.50335 6.128 2.86002 7.98883 4.08835 9.16675C4.88127 9.93216 6.12335 9.93216 6.91627 9.16675C8.14002 7.98883 9.49669 6.128 9.01085 3.96925C8.55252 1.97091 6.83377 1.2605 5.50002 1.2605Z" fill="#6A6A6A"/>
</svg>
