<svg width="393" height="330" viewBox="0 0 393 330" fill="none" xmlns="http://www.w3.org/2000/svg">
<path d="M145.145 34.8397C141.516 23.0421 139.702 17.1432 140.958 12.4633C142.059 8.36507 144.667 4.83394 148.261 2.57715C152.364 0 158.536 0 170.879 0H222.605C234.948 0 241.119 0 245.223 2.57715C248.816 4.83394 251.425 8.36507 252.525 12.4633C253.782 17.1433 251.967 23.0421 248.338 34.8397L236.109 74.5942C234.01 81.4178 232.961 84.8295 230.916 87.3573C229.111 89.5888 226.765 91.3216 224.101 92.3908C221.084 93.6019 217.515 93.6019 210.375 93.6019H183.108C175.969 93.6019 172.399 93.6019 169.382 92.3908C166.719 91.3216 164.373 89.5888 162.568 87.3573C160.523 84.8295 159.473 81.4178 157.374 74.5942L145.145 34.8397Z" fill="url(#paint0_linear_664_2161)"/>
<path d="M261.49 35.7603C265.26 24.0071 267.145 18.1305 270.853 15.0102C274.099 12.2778 278.258 10.8729 282.497 11.0769C287.337 11.3098 292.4 14.8395 302.525 21.8989L344.956 51.482C355.081 58.5414 360.143 62.0711 362.036 66.5321C363.693 70.4386 363.813 74.8269 362.372 78.8181C360.726 83.3758 355.864 87.1769 346.139 94.779L313.371 120.396C307.747 124.793 304.935 126.991 301.812 127.895C299.055 128.693 296.139 128.773 293.343 128.127C290.175 127.395 287.247 125.353 281.391 121.27L259.023 105.675C253.167 101.592 250.239 99.5506 248.456 96.8315C246.883 94.431 245.95 91.668 245.745 88.805C245.514 85.5621 246.604 82.1632 248.785 75.3653L261.49 35.7603Z" fill="url(#paint1_linear_664_2161)"/>
<path d="M133.172 34.7086C129.401 22.9554 127.516 17.0788 123.809 13.9585C120.562 11.2261 116.403 9.82119 112.164 10.0252C107.324 10.2581 102.262 13.7878 92.1365 20.8472L49.7058 50.4303C39.5806 57.4897 34.518 61.0194 32.6257 65.4804C30.9686 69.3869 30.8486 73.7752 32.2898 77.7664C33.9355 82.3241 38.7977 86.1252 48.522 93.7273L81.2902 119.344C86.9146 123.741 89.7268 125.939 92.8497 126.843C95.6067 127.642 98.5221 127.721 101.319 127.075C104.486 126.343 107.414 124.301 113.271 120.218L135.638 104.623C141.495 100.54 144.423 98.4989 146.205 95.7798C147.778 93.3793 148.712 90.6162 148.916 87.7533C149.148 84.5104 148.057 81.1115 145.877 74.3136L133.172 34.7086Z" fill="url(#paint2_linear_664_2161)"/>
<path d="M358.832 101.21C368.587 93.6481 373.465 89.8669 378.287 89.3895C382.51 88.9715 386.734 90.1643 390.115 92.729C393.976 95.6578 396.156 101.432 400.515 112.979L418.786 161.371C423.146 172.918 425.326 178.692 424.364 183.441C423.522 187.6 421.14 191.288 417.695 193.765C413.76 196.593 407.601 196.979 395.282 197.751L353.77 200.353C346.645 200.799 343.082 201.023 339.995 200.003C337.27 199.102 334.82 197.519 332.879 195.405C330.681 193.01 329.42 189.671 326.898 182.992L317.267 157.482C314.745 150.803 313.484 147.464 313.551 144.213C313.611 141.344 314.403 138.537 315.853 136.06C317.496 133.254 320.317 131.067 325.959 126.693L358.832 101.21Z" fill="url(#paint3_linear_664_2161)"/>
<path d="M395.073 210.487C407.401 209.876 413.565 209.57 417.791 211.941C421.492 214.017 424.272 217.415 425.574 221.453C427.061 226.065 425.541 232.047 422.501 244.01L409.76 294.142C406.719 306.105 405.199 312.086 401.691 315.428C398.618 318.355 394.553 320.013 390.31 320.07C385.465 320.136 380.195 316.924 369.655 310.501L334.137 288.856C328.041 285.141 324.993 283.284 323.047 280.679C321.329 278.38 320.227 275.68 319.847 272.835C319.416 269.612 320.296 266.153 322.054 259.234L328.77 232.806C330.529 225.887 331.408 222.428 333.325 219.802C335.018 217.483 337.275 215.637 339.882 214.437C342.836 213.078 346.401 212.901 353.531 212.547L395.073 210.487Z" fill="url(#paint4_linear_664_2161)"/>
<path d="M35.8293 100.159C26.074 92.5964 21.1964 88.8152 16.3742 88.3378C12.1514 87.9198 7.92663 89.1126 4.54601 91.6773C0.685503 94.6061 -1.49444 100.38 -5.85431 111.927L-24.1248 160.319C-28.4847 171.866 -30.6647 177.64 -29.7031 182.39C-28.8611 186.549 -26.4788 190.236 -23.0335 192.713C-19.0991 195.542 -12.9396 195.928 -0.620548 196.7L40.8909 199.301C48.016 199.748 51.5786 199.971 54.6656 198.951C57.3909 198.05 59.8406 196.468 61.7818 194.353C63.9805 191.959 65.2413 188.619 67.763 181.94L77.3944 156.43C79.9161 149.751 81.177 146.412 81.1097 143.162C81.0503 140.292 80.2578 137.485 78.8077 135.008C77.1651 132.202 74.344 130.016 68.7017 125.642L35.8293 100.159Z" fill="url(#paint5_linear_664_2161)"/>
<path d="M-0.613351 208.903C-12.9348 208.171 -19.0956 207.805 -23.3448 210.134C-27.0658 212.173 -29.8789 215.544 -31.2205 219.569C-32.7525 224.167 -31.291 230.163 -28.3679 242.155L-16.1185 292.409C-13.1955 304.401 -11.7339 310.397 -8.2583 313.774C-5.2147 316.731 -1.16635 318.428 3.0759 318.527C7.92035 318.64 13.2217 315.48 23.8243 309.16L59.552 287.864C65.6843 284.209 68.7505 282.382 70.7221 279.796C72.4627 277.514 73.5907 274.825 73.9986 271.984C74.4608 268.766 73.6154 265.297 71.9248 258.361L65.4675 231.87C63.7768 224.934 62.9315 221.466 61.0403 218.821C59.3708 216.486 57.1318 214.618 54.5362 213.392C51.5962 212.004 48.0329 211.793 40.9064 211.369L-0.613351 208.903Z" fill="url(#paint6_linear_664_2161)"/>
<rect x="117.711" y="137" width="160" height="160" rx="80" fill="url(#paint7_radial_664_2161)"/>
<path d="M255.071 209.44L246.911 199.96C245.351 198.16 244.091 194.8 244.091 192.4V182.2C244.091 175.84 238.871 170.62 232.511 170.62H222.311C219.971 170.62 216.551 169.36 214.751 167.8L205.271 159.64C201.131 156.1 194.351 156.1 190.151 159.64L180.731 167.86C178.931 169.36 175.511 170.62 173.171 170.62H162.791C156.431 170.62 151.211 175.84 151.211 182.2V192.46C151.211 194.8 149.951 198.16 148.451 199.96L140.351 209.5C136.871 213.64 136.871 220.36 140.351 224.5L148.451 234.04C149.951 235.84 151.211 239.2 151.211 241.54V251.8C151.211 258.16 156.431 263.38 162.791 263.38H173.171C175.511 263.38 178.931 264.64 180.731 266.2L190.211 274.36C194.351 277.9 201.131 277.9 205.331 274.36L214.811 266.2C216.611 264.64 219.971 263.38 222.371 263.38H232.571C238.931 263.38 244.151 258.16 244.151 251.8V241.6C244.151 239.26 245.411 235.84 246.971 234.04L255.131 224.56C258.611 220.42 258.611 213.58 255.071 209.44ZM222.671 205.66L193.691 234.64C192.851 235.48 191.711 235.96 190.511 235.96C189.311 235.96 188.171 235.48 187.331 234.64L172.811 220.12C171.071 218.38 171.071 215.5 172.811 213.76C174.551 212.02 177.431 212.02 179.171 213.76L190.511 225.1L216.311 199.3C218.051 197.56 220.931 197.56 222.671 199.3C224.411 201.04 224.411 203.92 222.671 205.66Z" fill="#00AD55"/>
<path d="M244.09 182.2V192.4L151.21 241.54C151.21 239.2 149.95 235.84 148.45 234.04L140.35 224.5C136.87 220.36 136.87 213.64 140.35 209.5L148.45 199.96C149.95 198.16 151.21 194.8 151.21 192.46V182.2C151.21 175.84 156.43 170.62 162.79 170.62H173.17C175.51 170.62 178.93 169.36 180.73 167.86L190.15 159.64C194.35 156.1 201.13 156.1 205.27 159.64L214.75 167.8C216.55 169.36 219.97 170.62 222.31 170.62H232.51C238.87 170.62 244.09 175.84 244.09 182.2Z" fill="#00B357"/>
<path d="M222.67 205.66L193.69 234.64C192.85 235.48 191.71 235.96 190.51 235.96C189.31 235.96 188.17 235.48 187.33 234.64L172.81 220.12C171.07 218.38 171.07 215.5 172.81 213.76C174.55 212.02 177.43 212.02 179.17 213.76L190.51 225.1L216.31 199.3C218.05 197.56 220.93 197.56 222.67 199.3C224.41 201.04 224.41 203.92 222.67 205.66Z" fill="#FCFCFC"/>
<circle cx="138.961" cy="151.5" r="4" fill="#9EFFCD"/>
<circle cx="290.961" cy="221.5" r="4" fill="#00AD55"/>
<circle cx="139.961" cy="249.5" r="2.5" fill="#00AD55"/>
<circle cx="246.961" cy="277.5" r="2.5" fill="#00D669"/>
<g clip-path="url(#clip0_664_2161)">
<path fill-rule="evenodd" clip-rule="evenodd" d="M235.151 141.325L233.461 137.493L231.771 141.325L227.938 143.015L231.771 144.705L233.461 148.539L235.151 144.705L238.985 143.015L235.151 141.325Z" fill="#0AFF82"/>
</g>
<path fill-rule="evenodd" clip-rule="evenodd" d="M110.714 206.767L108.461 201.658L106.208 206.767L101.096 209.02L106.208 211.274L108.461 216.386L110.714 211.274L115.826 209.02L110.714 206.767Z" fill="#00D669"/>
<defs>
<linearGradient id="paint0_linear_664_2161" x1="196.742" y1="0" x2="196.742" y2="93.6019" gradientUnits="userSpaceOnUse">
<stop stop-color="#FCFCFC" stop-opacity="0"/>
<stop offset="1" stop-color="#F7F7F7"/>
</linearGradient>
<linearGradient id="paint1_linear_664_2161" x1="323.74" y1="36.6904" x2="270.207" y2="113.473" gradientUnits="userSpaceOnUse">
<stop stop-color="#FCFCFC" stop-opacity="0"/>
<stop offset="1" stop-color="#F7F7F7"/>
</linearGradient>
<linearGradient id="paint2_linear_664_2161" x1="70.9211" y1="35.6387" x2="124.454" y2="112.421" gradientUnits="userSpaceOnUse">
<stop stop-color="#FCFCFC" stop-opacity="0"/>
<stop offset="1" stop-color="#F7F7F7"/>
</linearGradient>
<linearGradient id="paint3_linear_664_2161" x1="409.651" y1="137.175" x2="322.082" y2="170.237" gradientUnits="userSpaceOnUse">
<stop stop-color="#FCFCFC" stop-opacity="0"/>
<stop offset="1" stop-color="#F7F7F7"/>
</linearGradient>
<linearGradient id="paint4_linear_664_2161" x1="416.13" y1="269.076" x2="325.412" y2="246.02" gradientUnits="userSpaceOnUse">
<stop stop-color="#FCFCFC" stop-opacity="0"/>
<stop offset="1" stop-color="#F7F7F7"/>
</linearGradient>
<linearGradient id="paint5_linear_664_2161" x1="-14.9896" y1="136.123" x2="72.5787" y2="169.185" gradientUnits="userSpaceOnUse">
<stop stop-color="#FCFCFC" stop-opacity="0"/>
<stop offset="1" stop-color="#F7F7F7"/>
</linearGradient>
<linearGradient id="paint6_linear_664_2161" x1="-22.2432" y1="267.282" x2="68.6961" y2="245.116" gradientUnits="userSpaceOnUse">
<stop stop-color="#FCFCFC" stop-opacity="0"/>
<stop offset="1" stop-color="#F7F7F7"/>
</linearGradient>
<radialGradient id="paint7_radial_664_2161" cx="0" cy="0" r="1" gradientUnits="userSpaceOnUse" gradientTransform="translate(191.711 169) rotate(90) scale(71.5)">
<stop stop-color="#FCFCFC"/>
<stop offset="1" stop-color="#FCFCFC" stop-opacity="0"/>
</radialGradient>
<clipPath id="clip0_664_2161">
<rect width="12" height="12" fill="white" transform="translate(227.461 137)"/>
</clipPath>
</defs>
</svg>
