<svg width="393" height="330" viewBox="0 0 393 330" fill="none" xmlns="http://www.w3.org/2000/svg">
<path d="M144.434 34.8397C140.805 23.0421 138.991 17.1432 140.247 12.4633C141.348 8.36507 143.956 4.83394 147.55 2.57715C151.653 0 157.825 0 170.168 0H221.894C234.237 0 240.408 0 244.512 2.57715C248.105 4.83394 250.714 8.36507 251.814 12.4633C253.071 17.1433 251.256 23.0421 247.627 34.8397L235.398 74.5942C233.299 81.4178 232.25 84.8295 230.205 87.3573C228.4 89.5888 226.054 91.3216 223.39 92.3908C220.373 93.6019 216.804 93.6019 209.665 93.6019H182.397C175.258 93.6019 171.688 93.6019 168.671 92.3908C166.008 91.3216 163.662 89.5888 161.857 87.3573C159.812 84.8295 158.762 81.4178 156.663 74.5942L144.434 34.8397Z" fill="url(#paint0_linear_665_2162)"/>
<path d="M260.779 35.7604C264.549 24.0071 266.434 18.1305 270.142 15.0102C273.388 12.2778 277.547 10.8729 281.786 11.0769C286.626 11.3098 291.689 14.8395 301.814 21.8989L344.245 51.482C354.37 58.5414 359.432 62.0711 361.325 66.5321C362.982 70.4386 363.102 74.8269 361.661 78.8181C360.015 83.3758 355.153 87.1769 345.428 94.779L312.66 120.396C307.036 124.793 304.224 126.991 301.101 127.895C298.344 128.693 295.428 128.773 292.632 128.127C289.464 127.395 286.536 125.353 280.68 121.27L258.312 105.675C252.456 101.592 249.528 99.5506 247.745 96.8315C246.172 94.431 245.239 91.668 245.034 88.805C244.803 85.5621 245.893 82.1632 248.074 75.3653L260.779 35.7604Z" fill="url(#paint1_linear_665_2162)"/>
<path d="M132.461 34.7086C128.69 22.9554 126.805 17.0788 123.098 13.9585C119.851 11.2261 115.692 9.82119 111.454 10.0252C106.613 10.2581 101.551 13.7878 91.4256 20.8472L48.9948 50.4303C38.8696 57.4897 33.807 61.0194 31.9147 65.4804C30.2577 69.3869 30.1377 73.7752 31.5788 77.7664C33.2245 82.3241 38.0867 86.1252 47.8111 93.7273L80.5792 119.344C86.2036 123.741 89.0158 125.939 92.1387 126.843C94.8958 127.642 97.8111 127.721 100.608 127.075C103.775 126.343 106.703 124.301 112.56 120.218L134.927 104.623C140.784 100.54 143.712 98.4989 145.494 95.7798C147.068 93.3793 148.001 90.6162 148.205 87.7533C148.437 84.5104 147.347 81.1115 145.166 74.3136L132.461 34.7086Z" fill="url(#paint2_linear_665_2162)"/>
<path d="M358.121 101.21C367.876 93.6481 372.754 89.8669 377.576 89.3895C381.799 88.9715 386.024 90.1643 389.404 92.7291C393.265 95.6579 395.445 101.432 399.804 112.979L418.075 161.371C422.435 172.918 424.615 178.692 423.653 183.441C422.811 187.6 420.429 191.288 416.984 193.765C413.049 196.594 406.89 196.98 394.571 197.751L353.059 200.353C345.934 200.799 342.372 201.023 339.285 200.003C336.559 199.102 334.11 197.519 332.168 195.405C329.97 193.01 328.709 189.671 326.187 182.992L316.556 157.482C314.034 150.803 312.773 147.464 312.84 144.213C312.9 141.344 313.692 138.537 315.142 136.06C316.785 133.254 319.606 131.067 325.248 126.693L358.121 101.21Z" fill="url(#paint3_linear_665_2162)"/>
<path d="M394.362 210.487C406.69 209.876 412.854 209.57 417.08 211.941C420.781 214.017 423.561 217.415 424.863 221.453C426.35 226.065 424.83 232.047 421.79 244.01L409.049 294.142C406.008 306.105 404.488 312.086 400.98 315.428C397.907 318.355 393.842 320.013 389.599 320.07C384.754 320.136 379.484 316.924 368.944 310.501L333.426 288.856C327.33 285.141 324.282 283.284 322.336 280.679C320.618 278.38 319.516 275.68 319.136 272.835C318.705 269.612 319.585 266.153 321.343 259.234L328.06 232.806C329.818 225.887 330.697 222.428 332.614 219.802C334.307 217.483 336.564 215.637 339.171 214.437C342.125 213.078 345.69 212.901 352.82 212.547L394.362 210.487Z" fill="url(#paint4_linear_665_2162)"/>
<path d="M35.1183 100.159C25.3631 92.5964 20.4854 88.8152 15.6632 88.3378C11.4405 87.9198 7.21569 89.1126 3.83507 91.6773C-0.0254349 94.6061 -2.20537 100.38 -6.56525 111.927L-24.8358 160.319C-29.1956 171.866 -31.3756 177.64 -30.414 182.39C-29.572 186.549 -27.1898 190.236 -23.7444 192.713C-19.8101 195.542 -13.6505 195.928 -1.33149 196.7L40.18 199.301C47.3051 199.748 50.8677 199.971 53.9547 198.951C56.68 198.05 59.1297 196.468 61.0708 194.353C63.2696 191.959 64.5304 188.619 67.0521 181.94L76.6835 156.43C79.2052 149.751 80.466 146.412 80.3987 143.162C80.3393 140.292 79.5469 137.485 78.0967 135.008C76.4542 132.202 73.633 130.016 67.9907 125.642L35.1183 100.159Z" fill="url(#paint5_linear_665_2162)"/>
<path d="M-1.32427 208.903C-13.6457 208.171 -19.8065 207.805 -24.0557 210.134C-27.7767 212.173 -30.5898 215.544 -31.9314 219.569C-33.4634 224.167 -32.0019 230.163 -29.0788 242.155L-16.8294 292.409C-13.9064 304.401 -12.4449 310.397 -8.96922 313.774C-5.92563 316.731 -1.87727 318.428 2.36498 318.527C7.20942 318.64 12.5107 315.48 23.1134 309.16L58.841 287.864C64.9734 284.209 68.0396 282.382 70.0112 279.796C71.7518 277.514 72.8797 274.825 73.2877 271.984C73.7498 268.766 72.9045 265.297 71.2139 258.361L64.7565 231.87C63.0659 224.934 62.2206 221.466 60.3294 218.821C58.6598 216.486 56.4208 214.618 53.8253 213.392C50.8852 212.004 47.322 211.793 40.1954 211.369L-1.32427 208.903Z" fill="url(#paint6_linear_665_2162)"/>
<rect x="117" y="137" width="160" height="160" rx="80" fill="url(#paint7_radial_665_2162)"/>
<path d="M254.36 209.44L246.26 199.96C244.76 198.16 243.5 194.8 243.5 192.4V182.2C243.5 175.84 238.28 170.62 231.92 170.62H221.72C219.32 170.62 215.9 169.36 214.1 167.86L204.62 159.76C200.48 156.22 193.7 156.22 189.56 159.76L179.96 167.86C178.16 169.36 174.8 170.62 172.4 170.62H162.02C155.66 170.62 150.44 175.84 150.44 182.2V192.4C150.44 194.74 149.24 198.1 147.74 199.9L139.64 209.44C136.16 213.64 136.16 220.36 139.64 224.44L147.74 233.98C149.24 235.72 150.44 239.14 150.44 241.48V251.74C150.44 258.1 155.66 263.32 162.02 263.32H172.46C174.8 263.32 178.22 264.58 180.02 266.08L189.5 274.18C193.64 277.72 200.42 277.72 204.56 274.18L214.04 266.08C215.84 264.58 219.2 263.32 221.6 263.32H231.8C238.16 263.32 243.38 258.1 243.38 251.74V241.54C243.38 239.14 244.64 235.78 246.14 233.98L254.24 224.5C257.9 220.42 257.9 213.64 254.36 209.44ZM192.5 193.78C192.5 191.32 194.54 189.28 197 189.28C199.46 189.28 201.5 191.32 201.5 193.78V222.76C201.5 225.22 199.46 227.26 197 227.26C194.54 227.26 192.5 225.22 192.5 222.76V193.78ZM197 246.22C193.7 246.22 191 243.52 191 240.22C191 236.92 193.64 234.22 197 234.22C200.3 234.22 203 236.92 203 240.22C203 243.52 200.36 246.22 197 246.22Z" fill="#FE5349"/>
<circle cx="138.25" cy="151.5" r="4" fill="#FFC6C2"/>
<circle cx="290.25" cy="221.5" r="4" fill="#FE5349"/>
<circle cx="139.25" cy="249.5" r="2.5" fill="#FE5349"/>
<circle cx="246.25" cy="277.5" r="2.5" fill="#FE8C86"/>
<g clip-path="url(#clip0_665_2162)">
<path fill-rule="evenodd" clip-rule="evenodd" d="M234.44 141.325L232.75 137.493L231.06 141.325L227.227 143.015L231.06 144.705L232.75 148.539L234.44 144.705L238.274 143.015L234.44 141.325Z" fill="#FE5349"/>
</g>
<g clip-path="url(#clip1_665_2162)">
<path fill-rule="evenodd" clip-rule="evenodd" d="M110.003 206.767L107.75 201.658L105.497 206.767L100.385 209.02L105.497 211.274L107.75 216.386L110.003 211.274L115.115 209.02L110.003 206.767Z" fill="#FFDDDB"/>
</g>
<defs>
<linearGradient id="paint0_linear_665_2162" x1="196.031" y1="0" x2="196.031" y2="93.6019" gradientUnits="userSpaceOnUse">
<stop stop-color="#FCFCFC" stop-opacity="0"/>
<stop offset="1" stop-color="#F7F7F7"/>
</linearGradient>
<linearGradient id="paint1_linear_665_2162" x1="323.029" y1="36.6905" x2="269.496" y2="113.473" gradientUnits="userSpaceOnUse">
<stop stop-color="#FCFCFC" stop-opacity="0"/>
<stop offset="1" stop-color="#F7F7F7"/>
</linearGradient>
<linearGradient id="paint2_linear_665_2162" x1="70.2102" y1="35.6387" x2="123.743" y2="112.421" gradientUnits="userSpaceOnUse">
<stop stop-color="#FCFCFC" stop-opacity="0"/>
<stop offset="1" stop-color="#F7F7F7"/>
</linearGradient>
<linearGradient id="paint3_linear_665_2162" x1="408.94" y1="137.175" x2="321.371" y2="170.237" gradientUnits="userSpaceOnUse">
<stop stop-color="#FCFCFC" stop-opacity="0"/>
<stop offset="1" stop-color="#F7F7F7"/>
</linearGradient>
<linearGradient id="paint4_linear_665_2162" x1="415.419" y1="269.076" x2="324.701" y2="246.02" gradientUnits="userSpaceOnUse">
<stop stop-color="#FCFCFC" stop-opacity="0"/>
<stop offset="1" stop-color="#F7F7F7"/>
</linearGradient>
<linearGradient id="paint5_linear_665_2162" x1="-15.7005" y1="136.123" x2="71.8678" y2="169.185" gradientUnits="userSpaceOnUse">
<stop stop-color="#FCFCFC" stop-opacity="0"/>
<stop offset="1" stop-color="#F7F7F7"/>
</linearGradient>
<linearGradient id="paint6_linear_665_2162" x1="-22.9541" y1="267.282" x2="67.9852" y2="245.116" gradientUnits="userSpaceOnUse">
<stop stop-color="#FCFCFC" stop-opacity="0"/>
<stop offset="1" stop-color="#F7F7F7"/>
</linearGradient>
<radialGradient id="paint7_radial_665_2162" cx="0" cy="0" r="1" gradientUnits="userSpaceOnUse" gradientTransform="translate(191 169) rotate(90) scale(71.5)">
<stop stop-color="#FCFCFC"/>
<stop offset="1" stop-color="#FCFCFC" stop-opacity="0"/>
</radialGradient>
<clipPath id="clip0_665_2162">
<rect width="12" height="12" fill="white" transform="translate(226.75 137)"/>
</clipPath>
<clipPath id="clip1_665_2162">
<rect width="16" height="16" fill="white" transform="translate(99.75 201)"/>
</clipPath>
</defs>
</svg>
